<svg xmlns="http://www.w3.org/2000/svg" xmlns:xlink="http://www.w3.org/1999/xlink" width="38" height="43" viewBox="0 0 38 43" preserveAspectRatio="xMidYMid meet" version="1.0" fill="none">
  <g clip-path="url(#09064eea3c)">
    <path fill="#181d31" d="M 5.941406 42.550781 C 6.023438 42.488281 6.085938 42.390625 6.140625 42.261719 C 8.785156 36.148438 11.4375 30.035156 14.085938 23.925781 C 14.4375 23.117188 14.789062 22.308594 15.175781 21.414062 C 15.285156 21.585938 15.34375 21.664062 15.382812 21.753906 C 15.761719 22.609375 16.148438 23.460938 16.511719 24.324219 C 16.628906 24.601562 16.796875 24.714844 17.109375 24.710938 C 18.570312 24.699219 20.03125 24.710938 21.492188 24.707031 C 21.683594 24.707031 21.875 24.675781 22.15625 24.652344 C 19.863281 19.363281 17.605469 14.144531 15.34375 8.925781 C 15.296875 8.917969 15.25 8.90625 15.207031 8.894531 C 10.324219 20.101562 5.441406 31.308594 0.542969 42.550781 Z M 5.941406 42.550781 " fill-opacity="1" fill-rule="nonzero"/>
  </g>
  <g clip-path="url(#00af08dd10)">
    <path fill="#181d31" d="M 26.6875 31.457031 C 27.132812 31.453125 27.367188 31.582031 27.550781 32.011719 C 29.007812 35.414062 30.488281 38.804688 31.957031 42.203125 C 32.027344 42.367188 32.109375 42.484375 32.230469 42.550781 L 37.585938 42.550781 C 37.523438 42.386719 37.492188 42.292969 37.453125 42.199219 C 36.738281 40.535156 36.019531 38.871094 35.300781 37.210938 C 33.835938 33.828125 32.371094 30.445312 30.910156 27.0625 C 30.792969 26.792969 30.675781 26.613281 30.316406 26.613281 C 25.347656 26.628906 20.378906 26.625 15.410156 26.617188 C 15.125 26.617188 14.972656 26.703125 14.859375 26.980469 C 14.382812 28.128906 13.875 29.265625 13.382812 30.410156 C 13.242188 30.738281 13.109375 31.066406 12.941406 31.46875 C 13.25 31.46875 13.460938 31.46875 13.675781 31.46875 C 18.011719 31.464844 22.347656 31.472656 26.6875 31.457031 Z M 26.6875 31.457031 " fill-opacity="1" fill-rule="nonzero"/>
  </g>
  <path fill="#181d31" d="M 29.925781 24.679688 C 29.550781 24.679688 29.308594 24.679688 29.066406 24.679688 C 27.667969 24.679688 26.265625 24.667969 24.867188 24.6875 C 24.503906 24.691406 24.320312 24.570312 24.179688 24.238281 C 22.066406 19.367188 19.941406 14.5 17.816406 9.628906 C 17.375 8.617188 16.929688 7.605469 16.5 6.585938 C 16.4375 6.4375 16.421875 6.21875 16.480469 6.074219 C 17.300781 4.15625 18.136719 2.242188 18.96875 0.328125 C 19.007812 0.238281 19.089844 0.167969 19.191406 0.0351562 C 22.765625 8.246094 26.320312 16.402344 29.925781 24.679688 Z M 29.925781 24.679688 " fill-opacity="1" fill-rule="nonzero"/>
  <g clip-path="url(#3565c670cc)">
    <path fill="#181d31" d="M 24.410156 42.316406 C 24.460938 42.429688 24.515625 42.5 24.585938 42.550781 L 29.925781 42.550781 C 29.894531 42.457031 29.875 42.394531 29.847656 42.335938 C 28.597656 39.449219 27.355469 36.5625 26.085938 33.683594 C 26.023438 33.542969 25.765625 33.410156 25.597656 33.40625 C 24.242188 33.382812 22.890625 33.394531 21.535156 33.394531 C 21.234375 33.394531 20.929688 33.394531 20.566406 33.394531 C 20.609375 33.554688 20.613281 33.613281 20.640625 33.667969 C 21.898438 36.550781 23.164062 39.429688 24.410156 42.316406 Z M 24.410156 42.316406 " fill-opacity="1" fill-rule="nonzero"/>
  </g>
</svg>
