<svg xmlns="http://www.w3.org/2000/svg" xmlns:xlink="http://www.w3.org/1999/xlink"  viewBox="0 0 100 43" preserveAspectRatio="xMidYMid meet" version="1.0" fill="none">
<defs><g/><clipPath id="5359bc85a8"><path d="M 0.308594 7 L 18 7 L 18 33.632812 L 0.308594 33.632812 Z M 0.308594 7 " clip-rule="nonzero"/></clipPath><clipPath id="ff825080e7"><path d="M 10 21 L 29.457031 21 L 29.457031 33.632812 L 10 33.632812 Z M 10 21 " clip-rule="nonzero"/></clipPath><clipPath id="c560938fd2"><path d="M 16 26 L 24 26 L 24 33.632812 L 16 33.632812 Z M 16 26 " clip-rule="nonzero"/></clipPath></defs><g clip-path="url(#5359bc85a8)"><path fill="#ffffff" d="M 4.59375 33.789062 C 4.660156 33.738281 4.707031 33.660156 4.753906 33.558594 C 6.851562 28.703125 8.957031 23.851562 11.0625 19 C 11.339844 18.355469 11.621094 17.714844 11.929688 17.003906 C 12.011719 17.140625 12.0625 17.203125 12.09375 17.273438 C 12.394531 17.953125 12.699219 18.632812 12.988281 19.316406 C 13.082031 19.535156 13.214844 19.625 13.460938 19.625 C 14.621094 19.613281 15.78125 19.621094 16.941406 19.621094 C 17.09375 19.621094 17.246094 19.59375 17.46875 19.578125 C 15.652344 15.375 13.855469 11.234375 12.058594 7.089844 C 12.023438 7.082031 11.988281 7.070312 11.953125 7.0625 C 8.074219 15.964844 4.199219 24.863281 0.308594 33.789062 Z M 4.59375 33.789062 " fill-opacity="1" fill-rule="nonzero"/></g><g clip-path="url(#ff825080e7)"><path fill="#ffffff" d="M 21.070312 24.980469 C 21.421875 24.976562 21.609375 25.082031 21.753906 25.417969 C 22.910156 28.121094 24.085938 30.8125 25.25 33.511719 C 25.308594 33.644531 25.375 33.738281 25.472656 33.789062 L 29.722656 33.789062 C 29.675781 33.660156 29.648438 33.585938 29.617188 33.511719 C 29.046875 32.191406 28.480469 30.867188 27.910156 29.546875 C 26.746094 26.863281 25.582031 24.175781 24.421875 21.488281 C 24.328125 21.277344 24.234375 21.132812 23.949219 21.132812 C 20.003906 21.144531 16.058594 21.140625 12.113281 21.136719 C 11.886719 21.136719 11.765625 21.207031 11.675781 21.425781 C 11.296875 22.335938 10.894531 23.238281 10.503906 24.148438 C 10.394531 24.410156 10.285156 24.671875 10.152344 24.988281 C 10.398438 24.988281 10.566406 24.988281 10.734375 24.988281 C 14.179688 24.988281 17.625 24.992188 21.070312 24.980469 Z M 21.070312 24.980469 " fill-opacity="1" fill-rule="nonzero"/></g><path fill="#ffffff" d="M 23.640625 19.597656 C 23.339844 19.597656 23.148438 19.597656 22.957031 19.597656 C 21.84375 19.597656 20.734375 19.589844 19.621094 19.605469 C 19.335938 19.609375 19.191406 19.511719 19.078125 19.25 C 17.398438 15.378906 15.710938 11.511719 14.023438 7.648438 C 13.675781 6.839844 13.316406 6.039062 12.980469 5.230469 C 12.929688 5.109375 12.914062 4.9375 12.964844 4.824219 C 13.613281 3.300781 14.277344 1.78125 14.941406 0.261719 C 14.972656 0.1875 15.035156 0.132812 15.113281 0.0273438 C 17.953125 6.550781 20.777344 13.027344 23.640625 19.597656 Z M 23.640625 19.597656 " fill-opacity="1" fill-rule="nonzero"/><g clip-path="url(#c560938fd2)"><path fill="#ffffff" d="M 19.261719 33.605469 C 19.300781 33.691406 19.34375 33.75 19.398438 33.789062 L 23.640625 33.789062 C 23.613281 33.714844 23.597656 33.664062 23.578125 33.617188 C 22.585938 31.328125 21.597656 29.03125 20.589844 26.746094 C 20.542969 26.636719 20.335938 26.53125 20.203125 26.527344 C 19.128906 26.507812 18.050781 26.519531 16.976562 26.519531 C 16.738281 26.519531 16.496094 26.519531 16.207031 26.519531 C 16.242188 26.644531 16.246094 26.695312 16.265625 26.738281 C 17.265625 29.023438 18.269531 31.3125 19.261719 33.605469 Z M 19.261719 33.605469 " fill-opacity="1" fill-rule="nonzero"/></g><g fill="#f8f8f8" fill-opacity="1"><g transform="translate(31.229401, 33.485409)"><g><path d="M 6.140625 -6.484375 C 6.785156 -6.484375 7.257812 -6.632812 7.5625 -6.9375 C 7.875 -7.238281 8.03125 -7.703125 8.03125 -8.328125 C 8.03125 -8.960938 7.851562 -9.410156 7.5 -9.671875 C 7.15625 -9.929688 6.640625 -10.0625 5.953125 -10.0625 L 3.78125 -10.0625 L 3.78125 -6.484375 Z M 3.78125 0 L 1.234375 0 L 1.234375 -12.15625 L 6.796875 -12.15625 C 7.953125 -12.15625 8.867188 -11.804688 9.546875 -11.109375 C 10.222656 -10.421875 10.5625 -9.472656 10.5625 -8.265625 C 10.5625 -7.222656 10.226562 -6.316406 9.5625 -5.546875 C 8.894531 -4.773438 7.9375 -4.390625 6.6875 -4.390625 L 3.78125 -4.390625 Z M 3.78125 0 "/></g></g></g><g fill="#f8f8f8" fill-opacity="1"><g transform="translate(41.535779, 33.485409)"><g><path d="M 6.140625 -6.484375 C 6.785156 -6.484375 7.257812 -6.632812 7.5625 -6.9375 C 7.875 -7.238281 8.03125 -7.703125 8.03125 -8.328125 C 8.03125 -8.960938 7.851562 -9.410156 7.5 -9.671875 C 7.15625 -9.929688 6.640625 -10.0625 5.953125 -10.0625 L 3.78125 -10.0625 L 3.78125 -6.484375 Z M 3.78125 0 L 1.234375 0 L 1.234375 -12.15625 L 6.796875 -12.15625 C 7.953125 -12.15625 8.867188 -11.804688 9.546875 -11.109375 C 10.222656 -10.421875 10.5625 -9.472656 10.5625 -8.265625 C 10.5625 -7.222656 10.226562 -6.316406 9.5625 -5.546875 C 8.894531 -4.773438 7.9375 -4.390625 6.6875 -4.390625 L 3.78125 -4.390625 Z M 3.78125 0 "/></g></g></g><g fill="#f8f8f8" fill-opacity="1"><g transform="translate(51.842157, 33.485409)"><g><path d="M 5.1875 -3.640625 L 0.453125 -3.640625 L 0.453125 -5.84375 L 5.1875 -5.84375 Z M 5.1875 -3.640625 "/></g></g></g><g fill="#f8f8f8" fill-opacity="1"><g transform="translate(56.600337, 33.485409)"><g><path d="M 3.53125 0 L 1.15625 0 L 1.15625 -12.15625 L 3.53125 -12.15625 Z M 3.53125 0 "/></g></g></g><g fill="#f8f8f8" fill-opacity="1"><g transform="translate(60.407632, 33.485409)"><g><path d="M 3.53125 -10.078125 L 1.15625 -10.078125 L 1.15625 -12.28125 L 3.53125 -12.28125 Z M 3.53125 -9.015625 L 3.53125 0 L 1.15625 0 L 1.15625 -9.015625 Z M 3.53125 -9.015625 "/></g></g></g><g fill="#f8f8f8" fill-opacity="1"><g transform="translate(64.214926, 33.485409)"><g><path d="M 8.90625 -3.28125 C 8.769531 -2.226562 8.34375 -1.378906 7.625 -0.734375 C 6.914062 -0.0859375 5.96875 0.234375 4.78125 0.234375 C 3.4375 0.234375 2.40625 -0.160156 1.6875 -0.953125 C 0.976562 -1.753906 0.625 -2.851562 0.625 -4.25 C 0.625 -5.90625 1 -7.148438 1.75 -7.984375 C 2.5 -8.828125 3.5625 -9.25 4.9375 -9.25 C 6.007812 -9.25 6.914062 -8.957031 7.65625 -8.375 C 8.40625 -7.789062 8.828125 -6.929688 8.921875 -5.796875 L 6.515625 -5.796875 C 6.421875 -6.296875 6.238281 -6.660156 5.96875 -6.890625 C 5.707031 -7.128906 5.363281 -7.25 4.9375 -7.25 C 4.332031 -7.25 3.867188 -7.007812 3.546875 -6.53125 C 3.222656 -6.050781 3.0625 -5.421875 3.0625 -4.640625 C 3.0625 -3.503906 3.222656 -2.734375 3.546875 -2.328125 C 3.878906 -1.921875 4.328125 -1.71875 4.890625 -1.71875 C 5.335938 -1.71875 5.707031 -1.867188 6 -2.171875 C 6.289062 -2.484375 6.453125 -2.851562 6.484375 -3.28125 Z M 8.90625 -3.28125 "/></g></g></g><g fill="#f8f8f8" fill-opacity="1"><g transform="translate(72.784908, 33.485409)"><g><path d="M 6.328125 -4.359375 C 6.035156 -4.160156 5.46875 -4 4.625 -3.875 C 3.914062 -3.78125 3.453125 -3.625 3.234375 -3.40625 C 3.015625 -3.1875 2.90625 -2.894531 2.90625 -2.53125 C 2.90625 -2.175781 3.019531 -1.90625 3.25 -1.71875 C 3.488281 -1.539062 3.765625 -1.453125 4.078125 -1.453125 C 4.691406 -1.453125 5.21875 -1.617188 5.65625 -1.953125 C 6.101562 -2.296875 6.328125 -2.722656 6.328125 -3.234375 Z M 8.640625 -1.765625 C 8.640625 -1.347656 8.675781 -1.019531 8.75 -0.78125 C 8.832031 -0.550781 8.96875 -0.410156 9.15625 -0.359375 L 9.15625 0 L 6.625 0 C 6.507812 -0.300781 6.429688 -0.65625 6.390625 -1.0625 C 5.617188 -0.195312 4.613281 0.234375 3.375 0.234375 C 2.519531 0.234375 1.832031 0 1.3125 -0.46875 C 0.789062 -0.945312 0.53125 -1.585938 0.53125 -2.390625 C 0.53125 -3.160156 0.757812 -3.796875 1.21875 -4.296875 C 1.675781 -4.796875 2.359375 -5.113281 3.265625 -5.25 L 5.46875 -5.578125 C 5.78125 -5.617188 6 -5.703125 6.125 -5.828125 C 6.257812 -5.953125 6.328125 -6.109375 6.328125 -6.296875 C 6.328125 -6.648438 6.195312 -6.914062 5.9375 -7.09375 C 5.6875 -7.269531 5.300781 -7.359375 4.78125 -7.359375 C 4.238281 -7.359375 3.835938 -7.257812 3.578125 -7.0625 C 3.328125 -6.863281 3.175781 -6.539062 3.125 -6.09375 L 0.828125 -6.09375 C 0.941406 -7.1875 1.3125 -7.984375 1.9375 -8.484375 C 2.570312 -8.992188 3.582031 -9.25 4.96875 -9.25 C 6.082031 -9.25 6.972656 -9.023438 7.640625 -8.578125 C 8.304688 -8.128906 8.640625 -7.484375 8.640625 -6.640625 Z M 8.640625 -1.765625 "/></g></g></g><g fill="#f8f8f8" fill-opacity="1"><g transform="translate(81.578139, 33.485409)"><g><path d="M 3.796875 -9.015625 L 5.28125 -9.015625 L 5.28125 -7.3125 L 3.796875 -7.3125 L 3.796875 -2.265625 C 3.796875 -2.023438 3.859375 -1.867188 3.984375 -1.796875 C 4.117188 -1.734375 4.320312 -1.703125 4.59375 -1.703125 C 4.863281 -1.703125 5.09375 -1.710938 5.28125 -1.734375 L 5.28125 0.03125 C 4.925781 0.0820312 4.5 0.109375 4 0.109375 C 3.0625 0.109375 2.398438 -0.03125 2.015625 -0.3125 C 1.628906 -0.59375 1.4375 -1.101562 1.4375 -1.84375 L 1.4375 -7.3125 L 0.203125 -7.3125 L 0.203125 -9.015625 L 1.4375 -9.015625 L 1.4375 -11.453125 L 3.796875 -11.453125 Z M 3.796875 -9.015625 "/></g></g></g><g fill="#f8f8f8" fill-opacity="1"><g transform="translate(86.385932, 33.485409)"><g><path d="M 3.53125 -10.078125 L 1.15625 -10.078125 L 1.15625 -12.28125 L 3.53125 -12.28125 Z M 3.53125 -9.015625 L 3.53125 0 L 1.15625 0 L 1.15625 -9.015625 Z M 3.53125 -9.015625 "/></g></g></g><g fill="#f8f8f8" fill-opacity="1"><g transform="translate(90.19323, 33.485409)"><g><path d="M 7.34375 -4.5 C 7.34375 -5.363281 7.164062 -6.035156 6.8125 -6.515625 C 6.457031 -7.003906 5.921875 -7.25 5.203125 -7.25 C 4.535156 -7.25 4.007812 -7.019531 3.625 -6.5625 C 3.25 -6.113281 3.0625 -5.425781 3.0625 -4.5 C 3.0625 -3.601562 3.242188 -2.921875 3.609375 -2.453125 C 3.984375 -1.992188 4.515625 -1.765625 5.203125 -1.765625 C 5.910156 -1.765625 6.441406 -2.003906 6.796875 -2.484375 C 7.160156 -2.960938 7.34375 -3.632812 7.34375 -4.5 Z M 9.78125 -4.5 C 9.78125 -3.03125 9.359375 -1.875 8.515625 -1.03125 C 7.671875 -0.1875 6.566406 0.234375 5.203125 0.234375 C 3.859375 0.234375 2.757812 -0.179688 1.90625 -1.015625 C 1.050781 -1.859375 0.625 -3.019531 0.625 -4.5 C 0.625 -6 1.050781 -7.164062 1.90625 -8 C 2.757812 -8.832031 3.859375 -9.25 5.203125 -9.25 C 6.578125 -9.25 7.679688 -8.820312 8.515625 -7.96875 C 9.359375 -7.113281 9.78125 -5.957031 9.78125 -4.5 Z M 9.78125 -4.5 "/></g></g></g><g fill="#f8f8f8" fill-opacity="1"><g transform="translate(99.714097, 33.485409)"><g><path d="M 9.296875 0 L 6.9375 0 L 6.9375 -5.59375 C 6.9375 -6.125 6.816406 -6.53125 6.578125 -6.8125 C 6.335938 -7.101562 5.941406 -7.25 5.390625 -7.25 C 4.828125 -7.25 4.375 -7.0625 4.03125 -6.6875 C 3.695312 -6.320312 3.53125 -5.816406 3.53125 -5.171875 L 3.53125 0 L 1.15625 0 L 1.15625 -9.015625 L 3.4375 -9.015625 L 3.4375 -7.6875 L 3.46875 -7.6875 C 4.03125 -8.726562 4.925781 -9.25 6.15625 -9.25 C 7.070312 -9.25 7.820312 -8.984375 8.40625 -8.453125 C 9 -7.929688 9.296875 -7.191406 9.296875 -6.234375 Z M 9.296875 0 "/></g></g></g></svg>