<svg xmlns="http://www.w3.org/2000/svg" xmlns:xlink="http://www.w3.org/1999/xlink" width="303" zoomAndPan="magnify" viewBox="0 0 227.25 92.249997" height="123" preserveAspectRatio="xMidYMid meet" version="1.0"><defs><g/><clipPath id="09064eea3c"><path d="M 0.542969 8 L 23 8 L 23 42.40625 L 0.542969 42.40625 Z M 0.542969 8 " clip-rule="nonzero"/></clipPath><clipPath id="00af08dd10"><path d="M 12 26 L 37.742188 26 L 37.742188 42.40625 L 12 42.40625 Z M 12 26 " clip-rule="nonzero"/></clipPath><clipPath id="3565c670cc"><path d="M 20 33 L 30 33 L 30 42.40625 L 20 42.40625 Z M 20 33 " clip-rule="nonzero"/></clipPath></defs><g clip-path="url(#09064eea3c)"><path fill="#181d31" d="M 5.941406 42.550781 C 6.023438 42.488281 6.085938 42.390625 6.140625 42.261719 C 8.785156 36.148438 11.4375 30.035156 14.085938 23.925781 C 14.4375 23.117188 14.789062 22.308594 15.175781 21.414062 C 15.285156 21.585938 15.34375 21.664062 15.382812 21.753906 C 15.761719 22.609375 16.148438 23.460938 16.511719 24.324219 C 16.628906 24.601562 16.796875 24.714844 17.109375 24.710938 C 18.570312 24.699219 20.03125 24.710938 21.492188 24.707031 C 21.683594 24.707031 21.875 24.675781 22.15625 24.652344 C 19.863281 19.363281 17.605469 14.144531 15.34375 8.925781 C 15.296875 8.917969 15.25 8.90625 15.207031 8.894531 C 10.324219 20.101562 5.441406 31.308594 0.542969 42.550781 Z M 5.941406 42.550781 " fill-opacity="1" fill-rule="nonzero"/></g><g clip-path="url(#00af08dd10)"><path fill="#181d31" d="M 26.6875 31.457031 C 27.132812 31.453125 27.367188 31.582031 27.550781 32.011719 C 29.007812 35.414062 30.488281 38.804688 31.957031 42.203125 C 32.027344 42.367188 32.109375 42.484375 32.230469 42.550781 L 37.585938 42.550781 C 37.523438 42.386719 37.492188 42.292969 37.453125 42.199219 C 36.738281 40.535156 36.019531 38.871094 35.300781 37.210938 C 33.835938 33.828125 32.371094 30.445312 30.910156 27.0625 C 30.792969 26.792969 30.675781 26.613281 30.316406 26.613281 C 25.347656 26.628906 20.378906 26.625 15.410156 26.617188 C 15.125 26.617188 14.972656 26.703125 14.859375 26.980469 C 14.382812 28.128906 13.875 29.265625 13.382812 30.410156 C 13.242188 30.738281 13.109375 31.066406 12.941406 31.46875 C 13.25 31.46875 13.460938 31.46875 13.675781 31.46875 C 18.011719 31.464844 22.347656 31.472656 26.6875 31.457031 Z M 26.6875 31.457031 " fill-opacity="1" fill-rule="nonzero"/></g><path fill="#181d31" d="M 29.925781 24.679688 C 29.550781 24.679688 29.308594 24.679688 29.066406 24.679688 C 27.667969 24.679688 26.265625 24.667969 24.867188 24.6875 C 24.503906 24.691406 24.320312 24.570312 24.179688 24.238281 C 22.066406 19.367188 19.941406 14.5 17.816406 9.628906 C 17.375 8.617188 16.929688 7.605469 16.5 6.585938 C 16.4375 6.4375 16.421875 6.21875 16.480469 6.074219 C 17.300781 4.15625 18.136719 2.242188 18.96875 0.328125 C 19.007812 0.238281 19.089844 0.167969 19.191406 0.0351562 C 22.765625 8.246094 26.320312 16.402344 29.925781 24.679688 Z M 29.925781 24.679688 " fill-opacity="1" fill-rule="nonzero"/><g clip-path="url(#3565c670cc)"><path fill="#181d31" d="M 24.410156 42.316406 C 24.460938 42.429688 24.515625 42.5 24.585938 42.550781 L 29.925781 42.550781 C 29.894531 42.457031 29.875 42.394531 29.847656 42.335938 C 28.597656 39.449219 27.355469 36.5625 26.085938 33.683594 C 26.023438 33.542969 25.765625 33.410156 25.597656 33.40625 C 24.242188 33.382812 22.890625 33.394531 21.535156 33.394531 C 21.234375 33.394531 20.929688 33.394531 20.566406 33.394531 C 20.609375 33.554688 20.613281 33.613281 20.640625 33.667969 C 21.898438 36.550781 23.164062 39.429688 24.410156 42.316406 Z M 24.410156 42.316406 " fill-opacity="1" fill-rule="nonzero"/></g><g fill="#181d31" fill-opacity="1"><g transform="translate(39.48202, 42.166675)"><g><path d="M 7.734375 -8.171875 C 8.546875 -8.171875 9.144531 -8.359375 9.53125 -8.734375 C 9.914062 -9.109375 10.109375 -9.691406 10.109375 -10.484375 C 10.109375 -11.285156 9.890625 -11.847656 9.453125 -12.171875 C 9.015625 -12.503906 8.359375 -12.671875 7.484375 -12.671875 L 4.765625 -12.671875 L 4.765625 -8.171875 Z M 4.765625 0 L 1.5625 0 L 1.5625 -15.3125 L 8.546875 -15.3125 C 10.003906 -15.3125 11.160156 -14.875 12.015625 -14 C 12.878906 -13.125 13.3125 -11.925781 13.3125 -10.40625 C 13.3125 -9.09375 12.890625 -7.945312 12.046875 -6.96875 C 11.203125 -6 9.992188 -5.515625 8.421875 -5.515625 L 4.765625 -5.515625 Z M 4.765625 0 "/></g></g></g><g fill="#181d31" fill-opacity="1"><g transform="translate(52.460381, 42.166675)"><g><path d="M 7.734375 -8.171875 C 8.546875 -8.171875 9.144531 -8.359375 9.53125 -8.734375 C 9.914062 -9.109375 10.109375 -9.691406 10.109375 -10.484375 C 10.109375 -11.285156 9.890625 -11.847656 9.453125 -12.171875 C 9.015625 -12.503906 8.359375 -12.671875 7.484375 -12.671875 L 4.765625 -12.671875 L 4.765625 -8.171875 Z M 4.765625 0 L 1.5625 0 L 1.5625 -15.3125 L 8.546875 -15.3125 C 10.003906 -15.3125 11.160156 -14.875 12.015625 -14 C 12.878906 -13.125 13.3125 -11.925781 13.3125 -10.40625 C 13.3125 -9.09375 12.890625 -7.945312 12.046875 -6.96875 C 11.203125 -6 9.992188 -5.515625 8.421875 -5.515625 L 4.765625 -5.515625 Z M 4.765625 0 "/></g></g></g><g fill="#181d31" fill-opacity="1"><g transform="translate(65.438741, 42.166675)"><g><path d="M 6.53125 -4.578125 L 0.578125 -4.578125 L 0.578125 -7.359375 L 6.53125 -7.359375 Z M 6.53125 -4.578125 "/></g></g></g><g fill="#181d31" fill-opacity="1"><g transform="translate(71.430504, 42.166675)"><g><path d="M 4.453125 0 L 1.453125 0 L 1.453125 -15.3125 L 4.453125 -15.3125 Z M 4.453125 0 "/></g></g></g><g fill="#181d31" fill-opacity="1"><g transform="translate(76.22486, 42.166675)"><g><path d="M 4.453125 -12.6875 L 1.453125 -12.6875 L 1.453125 -15.46875 L 4.453125 -15.46875 Z M 4.453125 -11.34375 L 4.453125 0 L 1.453125 0 L 1.453125 -11.34375 Z M 4.453125 -11.34375 "/></g></g></g><g fill="#181d31" fill-opacity="1"><g transform="translate(81.019216, 42.166675)"><g><path d="M 11.203125 -4.140625 C 11.035156 -2.804688 10.503906 -1.734375 9.609375 -0.921875 C 8.710938 -0.109375 7.515625 0.296875 6.015625 0.296875 C 4.328125 0.296875 3.03125 -0.203125 2.125 -1.203125 C 1.226562 -2.210938 0.78125 -3.597656 0.78125 -5.359375 C 0.78125 -7.441406 1.253906 -9.007812 2.203125 -10.0625 C 3.148438 -11.113281 4.488281 -11.640625 6.21875 -11.640625 C 7.5625 -11.640625 8.703125 -11.269531 9.640625 -10.53125 C 10.578125 -9.800781 11.101562 -8.722656 11.21875 -7.296875 L 8.203125 -7.296875 C 8.085938 -7.921875 7.863281 -8.382812 7.53125 -8.6875 C 7.195312 -8.988281 6.757812 -9.140625 6.21875 -9.140625 C 5.457031 -9.140625 4.875 -8.835938 4.46875 -8.234375 C 4.0625 -7.628906 3.859375 -6.832031 3.859375 -5.84375 C 3.859375 -4.414062 4.0625 -3.441406 4.46875 -2.921875 C 4.882812 -2.410156 5.445312 -2.15625 6.15625 -2.15625 C 6.726562 -2.15625 7.195312 -2.347656 7.5625 -2.734375 C 7.925781 -3.128906 8.128906 -3.597656 8.171875 -4.140625 Z M 11.203125 -4.140625 "/></g></g></g><g fill="#181d31" fill-opacity="1"><g transform="translate(91.81101, 42.166675)"><g><path d="M 7.96875 -5.5 C 7.601562 -5.238281 6.890625 -5.035156 5.828125 -4.890625 C 4.929688 -4.765625 4.347656 -4.5625 4.078125 -4.28125 C 3.804688 -4.007812 3.671875 -3.648438 3.671875 -3.203125 C 3.671875 -2.742188 3.816406 -2.398438 4.109375 -2.171875 C 4.398438 -1.941406 4.742188 -1.828125 5.140625 -1.828125 C 5.910156 -1.828125 6.570312 -2.039062 7.125 -2.46875 C 7.6875 -2.894531 7.96875 -3.429688 7.96875 -4.078125 Z M 10.875 -2.21875 C 10.875 -1.695312 10.921875 -1.285156 11.015625 -0.984375 C 11.117188 -0.691406 11.289062 -0.515625 11.53125 -0.453125 L 11.53125 0 L 8.34375 0 C 8.207031 -0.382812 8.109375 -0.832031 8.046875 -1.34375 C 7.078125 -0.25 5.816406 0.296875 4.265625 0.296875 C 3.179688 0.296875 2.3125 0 1.65625 -0.59375 C 1 -1.1875 0.671875 -1.992188 0.671875 -3.015625 C 0.671875 -3.984375 0.957031 -4.78125 1.53125 -5.40625 C 2.101562 -6.039062 2.960938 -6.441406 4.109375 -6.609375 L 6.890625 -7.015625 C 7.273438 -7.078125 7.550781 -7.1875 7.71875 -7.34375 C 7.882812 -7.5 7.96875 -7.695312 7.96875 -7.9375 C 7.96875 -8.375 7.804688 -8.703125 7.484375 -8.921875 C 7.171875 -9.148438 6.679688 -9.265625 6.015625 -9.265625 C 5.328125 -9.265625 4.828125 -9.140625 4.515625 -8.890625 C 4.203125 -8.640625 4.003906 -8.234375 3.921875 -7.671875 L 1.046875 -7.671875 C 1.191406 -9.054688 1.660156 -10.0625 2.453125 -10.6875 C 3.242188 -11.320312 4.515625 -11.640625 6.265625 -11.640625 C 7.660156 -11.640625 8.773438 -11.359375 9.609375 -10.796875 C 10.453125 -10.234375 10.875 -9.421875 10.875 -8.359375 Z M 10.875 -2.21875 "/></g></g></g><g fill="#181d31" fill-opacity="1"><g transform="translate(102.883933, 42.166675)"><g><path d="M 4.796875 -11.34375 L 6.640625 -11.34375 L 6.640625 -9.21875 L 4.796875 -9.21875 L 4.796875 -2.859375 C 4.796875 -2.554688 4.875 -2.359375 5.03125 -2.265625 C 5.195312 -2.179688 5.453125 -2.140625 5.796875 -2.140625 C 6.128906 -2.140625 6.410156 -2.148438 6.640625 -2.171875 L 6.640625 0.046875 C 6.203125 0.109375 5.664062 0.140625 5.03125 0.140625 C 3.851562 0.140625 3.019531 -0.0351562 2.53125 -0.390625 C 2.039062 -0.742188 1.796875 -1.390625 1.796875 -2.328125 L 1.796875 -9.21875 L 0.265625 -9.21875 L 0.265625 -11.34375 L 1.796875 -11.34375 L 1.796875 -14.40625 L 4.796875 -14.40625 Z M 4.796875 -11.34375 "/></g></g></g><g fill="#181d31" fill-opacity="1"><g transform="translate(108.938171, 42.166675)"><g><path d="M 4.453125 -12.6875 L 1.453125 -12.6875 L 1.453125 -15.46875 L 4.453125 -15.46875 Z M 4.453125 -11.34375 L 4.453125 0 L 1.453125 0 L 1.453125 -11.34375 Z M 4.453125 -11.34375 "/></g></g></g><g fill="#181d31" fill-opacity="1"><g transform="translate(113.732531, 42.166675)"><g><path d="M 9.25 -5.671875 C 9.25 -6.753906 9.023438 -7.601562 8.578125 -8.21875 C 8.128906 -8.832031 7.453125 -9.140625 6.546875 -9.140625 C 5.710938 -9.140625 5.054688 -8.851562 4.578125 -8.28125 C 4.097656 -7.707031 3.859375 -6.835938 3.859375 -5.671875 C 3.859375 -4.535156 4.085938 -3.675781 4.546875 -3.09375 C 5.015625 -2.507812 5.679688 -2.21875 6.546875 -2.21875 C 7.441406 -2.21875 8.113281 -2.519531 8.5625 -3.125 C 9.019531 -3.726562 9.25 -4.578125 9.25 -5.671875 Z M 12.3125 -5.671875 C 12.3125 -3.816406 11.78125 -2.359375 10.71875 -1.296875 C 9.65625 -0.234375 8.265625 0.296875 6.546875 0.296875 C 4.859375 0.296875 3.472656 -0.226562 2.390625 -1.28125 C 1.316406 -2.34375 0.78125 -3.804688 0.78125 -5.671875 C 0.78125 -7.554688 1.316406 -9.019531 2.390625 -10.0625 C 3.472656 -11.113281 4.859375 -11.640625 6.546875 -11.640625 C 8.273438 -11.640625 9.664062 -11.101562 10.71875 -10.03125 C 11.78125 -8.957031 12.3125 -7.503906 12.3125 -5.671875 Z M 12.3125 -5.671875 "/></g></g></g><g fill="#181d31" fill-opacity="1"><g transform="translate(125.721733, 42.166675)"><g><path d="M 11.71875 0 L 8.734375 0 L 8.734375 -7.046875 C 8.734375 -7.710938 8.582031 -8.226562 8.28125 -8.59375 C 7.976562 -8.957031 7.484375 -9.140625 6.796875 -9.140625 C 6.078125 -9.140625 5.503906 -8.90625 5.078125 -8.4375 C 4.660156 -7.96875 4.453125 -7.328125 4.453125 -6.515625 L 4.453125 0 L 1.453125 0 L 1.453125 -11.34375 L 4.328125 -11.34375 L 4.328125 -9.6875 L 4.359375 -9.6875 C 5.078125 -10.988281 6.207031 -11.640625 7.75 -11.640625 C 8.90625 -11.640625 9.851562 -11.304688 10.59375 -10.640625 C 11.34375 -9.984375 11.71875 -9.054688 11.71875 -7.859375 Z M 11.71875 0 "/></g></g></g></svg>